<svg xmlns="http://www.w3.org/2000/svg" xmlns:xlink="http://www.w3.org/1999/xlink" width="24" height="24" viewBox="0 0 24 24"><defs><path id="9i9ya" d="M20.9 2715h14.18c2.7 0 4.9 2.2 4.9 4.9v14.18c0 2.7-2.2 4.9-4.9 4.9H20.9c-2.7 0-4.91-2.2-4.91-4.9v-14.17c0-2.7 2.2-4.91 4.9-4.91z"/><path id="9i9yb" d="M27.97 2718.97c4.86 0 8.8 3.15 8.8 7.05a6.02 6.02 0 0 1-1.48 3.9v.01c-.29.34-.6.66-.96.96-2.43 2.24-6.44 4.92-6.97 4.5-.46-.35.76-2.1-.64-2.4l-.3-.04c-4.12-.58-7.25-3.46-7.25-6.93 0-3.9 3.94-7.05 8.8-7.05z"/><path id="9i9yc" d="M25.46 2727.81v-3.4c0-.25.2-.46.46-.46h.04c.25 0 .46.2.46.46v3.4c0 .26-.2.46-.46.46h-.04a.46.46 0 0 1-.46-.46zm4.98.32a.32.32 0 0 1-.1.09.45.45 0 0 1-.22.05h-.04a.45.45 0 0 1-.18-.03.39.39 0 0 1-.17-.13.47.47 0 0 1-.04-.05l-1.67-2.28v2.03c0 .26-.2.46-.46.46h-.04a.46.46 0 0 1-.45-.46v-3.4c0-.25.2-.46.45-.46h.04c.17 0 .32.1.4.23l1.66 2.23v-2c0-.25.2-.46.46-.46h.04c.25 0 .46.2.46.46v3.4c0 .12-.05.24-.14.32zm3.43-2c0 .26-.21.47-.46.47h-1.29v.72h1.29c.25 0 .46.21.46.46v.04c0 .25-.21.46-.46.46h-1.79a.46.46 0 0 1-.46-.46v-3.4c0-.26.21-.46.46-.46h1.79c.25 0 .46.2.46.46v.04c0 .25-.21.45-.46.45h-1.29v.73h1.29c.25 0 .46.2.46.46zm-11.01 2.14a.46.46 0 0 1-.46-.46v-3.4c0-.25.2-.46.46-.46h.04c.25 0 .46.2.46.46v2.9h1.27c.26 0 .46.21.46.46v.04c0 .26-.2.46-.46.46z"/></defs><g><g transform="translate(-16 -2715)"><use fill="#3ace01" xlink:href="#9i9ya"/></g><g transform="translate(-16 -2715)"><use fill="#fff" xlink:href="#9i9yb"/></g><g transform="translate(-16 -2715)"><use fill="#3ace01" xlink:href="#9i9yc"/></g></g></svg>