<?xml version="1.0" encoding="UTF-8"?>
<svg width="304px" height="546px" viewBox="0 0 304 546" version="1.1" xmlns="http://www.w3.org/2000/svg" xmlns:xlink="http://www.w3.org/1999/xlink">
    <!-- Generator: Sketch 51.1 (57501) - http://www.bohemiancoding.com/sketch -->
    <title>Group 18</title>
    <desc>Created with Sketch.</desc>
    <defs>
        <rect id="path-1" x="0" y="0" width="288" height="530" rx="16"></rect>
        <filter x="-4.2%" y="-2.3%" width="108.3%" height="104.5%" filterUnits="objectBoundingBox" id="filter-2">
            <feOffset dx="0" dy="0" in="SourceAlpha" result="shadowOffsetOuter1"></feOffset>
            <feGaussianBlur stdDeviation="4" in="shadowOffsetOuter1" result="shadowBlurOuter1"></feGaussianBlur>
            <feColorMatrix values="0 0 0 0 0   0 0 0 0 0   0 0 0 0 0  0 0 0 0.16 0" type="matrix" in="shadowBlurOuter1"></feColorMatrix>
        </filter>
    </defs>
    <g id="Page-1" stroke="none" stroke-width="1" fill="none" fill-rule="evenodd">
        <g id="mspytracker-landing-test-1-2" transform="translate(-8.000000, -185.000000)">
            <g id="Group-18" transform="translate(16.000000, 193.000000)">
                <g id="Rectangle-4">
                    <use fill="black" fill-opacity="1" filter="url(#filter-2)" xlink:href="#path-1"></use>
                    <use fill="#FFFFFF" fill-rule="evenodd" xlink:href="#path-1"></use>
                </g>
                <rect id="Rectangle-6" fill="#DEDEE1" x="96" y="48" width="96" height="4" rx="2"></rect>
                <path d="M154.638138,500.961445 L154.665731,500.961445 C157.064396,500.96934 159.0038,502.990774 158.999994,505.47903 C158.996189,507.967287 157.050611,509.982326 154.651934,509.982326 C152.253257,509.982326 150.307679,507.967287 150.303874,505.47903 C150.300068,502.990774 152.239473,500.96934 154.638138,500.961445 Z M150.276275,497.917413 C150.148922,497.873376 150.016261,497.823835 149.888908,497.845853 C149.566025,497.840083 149.254419,497.968984 149.023964,498.203651 L146.349538,500.488051 C146.179733,500.620161 146.047073,500.757776 145.919719,500.845849 L145.877268,500.889885 C145.144985,501.379793 144.280041,501.693554 143.372646,501.693554 C142.332592,501.693554 141.382746,501.335756 140.650462,500.708234 L139.875727,500.036676 C139.656735,499.853839 139.381976,499.758182 139.100993,499.766951 C138.549898,499.766126 138.068804,500.154033 137.933584,500.708234 L136.596371,506.306391 L136.596371,506.350428 C136.603106,506.442559 136.588553,506.535027 136.55392,506.620152 C136.521295,506.655299 136.505697,506.703838 136.511469,506.752262 C136.469017,506.840335 136.469017,506.933913 136.426566,507.021986 C136.426566,507.066023 136.384115,507.110059 136.384115,507.154096 C136.375374,507.249407 136.346377,507.341524 136.299213,507.42382 C136.299213,507.467857 136.256761,507.511894 136.256761,507.55593 C136.21431,507.644004 136.171859,507.737581 136.129408,507.825655 C136.129408,507.869691 136.086956,507.869691 136.086956,507.913728 C136.035317,507.982956 135.992511,508.058813 135.959603,508.139416 L135.917152,508.183452 C135.74204,508.453177 135.529784,508.67336 135.312222,508.899048 C135.269771,508.899048 135.232626,508.943084 135.184868,508.987121 C135.137111,509.031157 135.052208,509.075194 135.009757,509.119231 C134.967306,509.163267 134.930161,509.207304 134.882403,509.251341 C134.834646,509.295377 134.749743,509.339414 134.707292,509.38345 C134.641491,509.39313 134.580259,509.423927 134.532181,509.471524 C134.484423,509.51556 134.404827,509.51556 134.357069,509.559597 C134.309312,509.603634 134.266861,509.603634 134.181958,509.64767 C134.134201,509.691707 134.049298,509.691707 134.006847,509.735744 C133.916638,509.77978 133.874187,509.77978 133.789284,509.823817 C133.741527,509.823817 133.656624,509.867853 133.614173,509.867853 C133.571722,509.867853 133.481513,509.91189 133.396611,509.91189 C133.348853,509.91189 133.263951,509.955927 133.221499,509.955927 C133.136597,509.955927 133.046388,509.999963 132.961486,509.999963 L132.404314,509.999963 C130.156355,510.009274 128.268897,508.246645 128.042451,505.926575 C128,505.794465 128,505.612814 128,505.480704 L128,505.21098 C128,505.034833 128,504.897219 128.042451,504.765109 L128.042451,504.588962 C128.042451,504.495385 128.084902,504.451348 128.084902,504.363275 L131.475693,489.759627 C131.518144,489.583481 131.560596,489.451371 131.603047,489.26972 L131.603047,489.225683 C132.165525,487.387154 133.847655,486.044037 135.789798,486.044037 C136.736773,486.04521 137.658732,486.359507 138.421773,486.941283 L138.464225,486.98532 C138.506676,486.98532 138.506676,487.029356 138.549127,487.029356 L142.693427,490.612837 C143.120047,490.972526 143.731373,490.972526 144.157994,490.612837 L148.344745,487.073393 L148.429647,486.98532 L148.472099,486.941283 C149.240662,486.333169 150.179914,486.002593 151.146525,486 C153.258473,486 154.98836,487.568805 155.418179,489.583481 L156.108011,492.721091 C156.157319,493.03243 156.185688,493.34695 156.192913,493.662374 C156.192913,493.671915 156.192913,493.681456 156.192913,493.690997 C156.18926,494.887245 155.727654,496.032992 154.909645,496.876183 C154.091636,497.719374 152.984231,498.190939 151.831051,498.187137 C151.302049,498.18618 150.776793,498.095058 150.276275,497.917413 Z" id="Combined-Shape" fill="#DEDEE1" fill-rule="nonzero"></path>
            </g>
        </g>
    </g>
</svg>