<svg xmlns="http://www.w3.org/2000/svg" xmlns:xlink="http://www.w3.org/1999/xlink" width="24" height="21" viewBox="0 0 24 21"><defs><path id="70eca" d="M28.38 2533.6c2.1.5 5.3 1.26 5.3 4.77 0 1.74-.85 3.06-2.4 3.72-1.1.48-2.36.55-3.43.55-3.31 0-5.4-2.58-5.5-2.69a1.58 1.58 0 0 1 2.47-1.96s1.26 1.44 3.03 1.5c2.13.06 2.62-.57 2.68-1.12.08-.66-.51-1.14-2.88-1.7-2-.48-5.04-1.2-5.04-4.44 0-1.01.4-4.3 5.68-4.3 3.33 0 5.3 2.62 5.38 2.73a1.58 1.58 0 0 1-2.53 1.88 4.73 4.73 0 0 0-2.85-1.46c-1.27-.12-2.53.34-2.53 1.02 0 .72.36.96 2.62 1.5zm10.65 3.7a3.08 3.08 0 0 1-.55-1.81v-.01a10.48 10.48 0 0 0-14.08-9.84c-.6.22-1.27.26-1.9.09a5.13 5.13 0 0 0-5.53 7.92c.38.52.56 1.16.55 1.81v.02a10.48 10.48 0 0 0 14.08 9.83c.6-.22 1.27-.26 1.9-.09a5.13 5.13 0 0 0 5.53-7.91z"/></defs><g><g transform="translate(-16 -2525)"><use fill="#00aaf2" xlink:href="#70eca"/></g></g></svg>