<svg xmlns="http://www.w3.org/2000/svg" xmlns:xlink="http://www.w3.org/1999/xlink" width="24" height="20" viewBox="0 0 24 20"><defs><path id="svsra" d="M167.77 1449.8c-.9 0-1.64-.75-1.64-1.64 0-.9.74-1.65 1.64-1.65.9 0 1.65.75 1.65 1.65 0 .9-.75 1.64-1.65 1.64zm-5.74 0c-.9 0-1.64-.75-1.64-1.64 0-.9.74-1.65 1.64-1.65.9 0 1.63.75 1.63 1.65 0 .9-.74 1.64-1.63 1.64zm-5.76 0c-.9 0-1.65-.75-1.65-1.64 0-.9.75-1.65 1.65-1.65.9 0 1.64.75 1.64 1.65 0 .9-.72 1.64-1.64 1.64zm13.91-8.79h-16.43c-1 0-1.78.81-1.78 1.78v10.2c0 1 .81 1.78 1.78 1.78h11.33l2.56 2.6c.11.1.24.17.4.17.3 0 .57-.25.57-.57v-2.2h1.57c.99 0 1.78-.8 1.78-1.77v-10.21c0-1-.81-1.78-1.78-1.78z"/><path id="svsrb" d="M150.96 1453.04v-3.48h-1.8c-.63 0-1.16.53-1.16 1.16v6.7c-.02.69.5 1.21 1.16 1.21h1.03v1.45c0 .2.18.37.38.37.1 0 .2-.04.26-.1l1.69-1.7h7.45c.63 0 1.16-.52 1.16-1.16v-1.66h-7.39a2.79 2.79 0 0 1-2.78-2.79z"/></defs><g><g transform="translate(-148 -1441)"><use fill="#77c158" xlink:href="#svsra"/></g><g transform="translate(-148 -1441)"><use fill="#77c158" xlink:href="#svsrb"/></g></g></svg>