<svg xmlns="http://www.w3.org/2000/svg" xmlns:xlink="http://www.w3.org/1999/xlink" width="24" height="24" viewBox="0 0 24 24"><defs><path id="c8yya" d="M16.03 2395.9c.01.53.02 1.06.1 1.6a5.16 5.16 0 0 0 3.37 4.14c.78.24 1.58.33 2.38.34l1.51.01c3.65-.01 7.3.03 10.96-.02.49 0 .96-.07 1.44-.15a4.99 4.99 0 0 0 4-3.82c.16-.7.2-1.4.2-2.1v-.15l-.02-12.13c0-.43-.04-.86-.12-1.28a5.19 5.19 0 0 0-3.66-4.07 8.82 8.82 0 0 0-2.3-.26H22.14v.01c-.45.01-.89 0-1.33.06a4.96 4.96 0 0 0-3.28 1.55 4.95 4.95 0 0 0-1.25 2.18 8.8 8.8 0 0 0-.24 2.29"/><path id="c8yyb" d="M28.12 2398.25a2.83 2.83 0 0 1-.22 0 3.9 3.9 0 0 1-2.36-.93c-.44-.32-.86-.61-1.35-.7a4.35 4.35 0 0 0-.7-.05c-.42 0-.75.06-1 .1-.14.04-.27.06-.37.06-.1 0-.22-.02-.28-.2l-.1-.4c-.07-.33-.12-.53-.24-.55-1.31-.2-2.09-.5-2.24-.86a.34.34 0 0 1-.03-.12c0-.1.07-.2.18-.22a4.58 4.58 0 0 0 2.75-1.63 6.17 6.17 0 0 0 .94-1.47c.15-.31.18-.58.1-.8-.18-.4-.74-.57-1.1-.69-.1-.02-.19-.05-.26-.08-.32-.13-.86-.4-.8-.78.06-.28.43-.47.72-.47a.5.5 0 0 1 .22.04c.33.16.63.24.89.24.32 0 .47-.12.5-.16l-.02-.52c-.08-1.2-.17-2.69.2-3.54a4.6 4.6 0 0 1 4.63-2.76c.72 0 3.14.2 4.28 2.76.38.85.29 2.34.21 3.54v.06l-.03.46c.04.03.18.15.47.16.24-.01.52-.09.84-.24a.83.83 0 0 1 .59 0v.01c.26.1.43.28.44.48 0 .18-.13.46-.8.72l-.25.08c-.37.12-.93.3-1.1.7-.1.21-.06.48.09.79.05.12 1.18 2.69 3.7 3.1.1.02.18.11.17.22l-.03.12c-.15.36-.93.65-2.24.86-.12.01-.17.21-.24.54l-.1.4c-.04.13-.13.2-.26.2h-.02a2.1 2.1 0 0 1-.38-.05 4.91 4.91 0 0 0-1.69-.04c-.49.08-.9.37-1.35.69a3.9 3.9 0 0 1-2.36.93"/><path id="c8yyc" d="M28.17 2381.55h-.35c-.4 0-1.2.06-2.06.44a4.58 4.58 0 0 0-2.4 2.44c-.4.9-.3 2.42-.23 3.64l.02.4a.7.7 0 0 1-.3.06c-.22 0-.49-.07-.8-.22a.72.72 0 0 0-.3-.06c-.18 0-.37.05-.54.15-.2.12-.34.3-.38.49-.02.13-.02.38.26.63.15.14.38.27.67.39l.26.09c.33.1.84.26.97.57.07.16.04.36-.09.61v.02a5.94 5.94 0 0 1-2 2.38c-.48.3-1 .5-1.54.6a.42.42 0 0 0-.35.43c0 .07.02.13.04.19.1.2.29.37.61.52.4.19 1 .34 1.76.46.04.07.08.26.1.39l.11.42c.05.16.17.35.48.35.12 0 .26-.02.42-.05a4.66 4.66 0 0 1 1.62-.05c.44.07.82.34 1.26.65a4.08 4.08 0 0 0 2.7.97c1.11 0 1.84-.52 2.49-.97.44-.31.82-.58 1.26-.65a4.14 4.14 0 0 1 1.61.04c.18.03.31.05.42.05h.02c.23 0 .4-.13.46-.35l.1-.42c.03-.11.07-.3.11-.38a6.97 6.97 0 0 0 1.76-.46c.32-.15.52-.32.6-.52a.54.54 0 0 0 .05-.19.42.42 0 0 0-.35-.44c-2.4-.4-3.49-2.86-3.53-2.97l-.01-.02c-.12-.25-.15-.45-.09-.6.13-.32.64-.48.97-.58.1-.03.19-.06.26-.1.33-.12.57-.26.72-.42a.68.68 0 0 0 .22-.5c0-.28-.23-.54-.58-.67a1.03 1.03 0 0 0-.39-.07c-.1 0-.23.01-.36.07-.28.14-.54.2-.75.22a.68.68 0 0 1-.25-.06l.02-.35v-.05c.08-1.22.18-2.74-.22-3.64a4.6 4.6 0 0 0-2.42-2.45 5.24 5.24 0 0 0-2.06-.43m0 .42c.68 0 3 .18 4.09 2.63.36.81.27 2.27.2 3.45l-.04.54v.07l.05.05c.02.03.2.22.62.24h.01c.28-.01.59-.1.93-.25a.45.45 0 0 1 .18-.04c.08 0 .17.02.23.05h.02c.17.06.3.18.3.28 0 .06-.04.28-.67.52l-.24.08c-.4.13-1.02.33-1.22.82-.12.27-.09.6.09.96.07.17 1.24 2.79 3.85 3.22l-.01.04c-.04.1-.33.47-2.08.74-.27.04-.34.35-.42.7-.03.13-.05.26-.1.4 0 .04 0 .04-.05.04h-.02l-.33-.04a5.14 5.14 0 0 0-1.77-.05c-.54.09-.98.4-1.44.72-.62.44-1.26.9-2.24.9H27.9c-.98 0-1.62-.46-2.24-.9-.46-.32-.9-.63-1.43-.72a4.54 4.54 0 0 0-1.77.05 2.1 2.1 0 0 1-.33.05c-.07 0-.07 0-.08-.05l-.1-.4c-.08-.35-.14-.66-.42-.7-1.75-.27-2.03-.63-2.08-.74a.13.13 0 0 1 0-.04c2.6-.43 3.77-3.05 3.84-3.22.18-.36.21-.69.1-.96-.21-.5-.82-.69-1.23-.82l-.24-.08c-.52-.2-.69-.41-.66-.54.02-.15.28-.3.5-.3.05 0 .1.01.13.03.36.16.69.25.98.25.45 0 .65-.21.68-.24l.05-.05v-.07l-.04-.54c-.07-1.18-.17-2.64.2-3.45a4.4 4.4 0 0 1 4.07-2.63h.35"/></defs><g><g transform="translate(-16 -2378)"><use fill="#fffc00" xlink:href="#c8yya"/></g><g transform="translate(-16 -2378)"><use fill="#fff" xlink:href="#c8yyb"/></g><g transform="translate(-16 -2378)"><use fill="#020202" xlink:href="#c8yyc"/></g></g></svg>