<svg xmlns="http://www.w3.org/2000/svg" xmlns:xlink="http://www.w3.org/1999/xlink" width="24" height="22" viewBox="0 0 24 22"><defs><path id="sq32a" d="M168.75 2060.43c-.18-.87-.6-2.77-1.23-4.7a18.18 18.18 0 0 0-1.56-3.67c-.82-1.35-1.73-2.04-2.73-2.04-.8 0-1.78.48-3 1.46-.7-.55-2.07-1.46-3.42-1.46-1.66 0-3.03 1.82-4.31 5.73a46.66 46.66 0 0 0-1.24 4.68H148v1.87h24v-1.87z"/><path id="sq32b" d="M164.83 2063.66c-1.43 0-2.7.74-3.44 1.85l-1.57-.79-1.66.81a4.12 4.12 0 1 0 .64 1.78l1-.5.94.47a4.13 4.13 0 1 0 4.1-3.62z"/></defs><g><g transform="translate(-148 -2050)"><use fill="#77c158" xlink:href="#sq32a"/></g><g transform="translate(-148 -2050)"><use fill="#77c158" xlink:href="#sq32b"/></g></g></svg>