<svg xmlns="http://www.w3.org/2000/svg" xmlns:xlink="http://www.w3.org/1999/xlink" width="20" height="26" viewBox="0 0 20 26"><defs><path id="1yx9a" d="M27.72 2667c.21.16.4.36.6.54a30.3 30.3 0 0 1 4.84 5.75c1.3 2.05 2.3 4.33 2.75 6.73.25 1.31.33 2.66.19 4a8.96 8.96 0 0 1-1.36 3.84 6.23 6.23 0 0 1-3.47 2.57 16.92 16.92 0 0 1-6.19.47c-1.28-.17-2.54-.5-3.68-1.12a6.45 6.45 0 0 1-2.57-2.44 6.89 6.89 0 0 1-.8-3.97c.1-1.45.57-2.85 1.18-4.16a23.93 23.93 0 0 1 3.89-5.66l.05-.05c-.01.65.05 1.3.24 1.93.19.64.5 1.24.93 1.75.03.04.05.08.1.09.92-.7 1.79-1.48 2.47-2.41.7-.97 1.18-2.1 1.36-3.29a8.87 8.87 0 0 0-.53-4.57z"/></defs><g><g transform="translate(-17 -2666)"><use fill="#df4723" xlink:href="#1yx9a"/><use fill="#fff" fill-opacity="0" stroke="#df4723" stroke-miterlimit="50" stroke-width=".09" xlink:href="#1yx9a"/></g></g></svg>