<svg xmlns="http://www.w3.org/2000/svg" xmlns:xlink="http://www.w3.org/1999/xlink" width="24" height="24" viewBox="0 0 24 24"><defs><path id="owwba" d="M39.97 2346.9a21.4 21.4 0 0 1-.14 2.18 4.65 4.65 0 0 1-3.77 3.76 12.66 12.66 0 0 1-2.17.13H22.1a21.37 21.37 0 0 1-2.17-.14 4.65 4.65 0 0 1-3.76-3.77 12.67 12.67 0 0 1-.14-2.17v-11.8a21.4 21.4 0 0 1 .14-2.17 4.65 4.65 0 0 1 3.77-3.76 12.66 12.66 0 0 1 2.17-.14h11.8a21.36 21.36 0 0 1 2.18.14 4.65 4.65 0 0 1 3.76 3.77 12.68 12.68 0 0 1 .13 2.17z"/><path id="owwbc" d="M30.72 2341.86c-.2-.08-.34-.11-.48.1-.14.22-.56.7-.68.85-.13.14-.25.16-.47.05-.21-.1-.9-.34-1.72-1.07a6.47 6.47 0 0 1-1.2-1.48c-.12-.22 0-.33.1-.44.1-.1.21-.25.32-.38.1-.12.14-.21.21-.35.08-.15.04-.27-.01-.38-.06-.1-.49-1.16-.66-1.6-.18-.41-.36-.35-.49-.36h-.4a.79.79 0 0 0-.58.26c-.2.21-.75.73-.75 1.79s.77 2.08.87 2.22c.11.14 1.52 2.3 3.67 3.24.51.22.91.35 1.22.45.52.16.99.14 1.36.09.4-.07 1.27-.52 1.44-1.02.18-.5.18-.94.13-1.02-.05-.1-.2-.15-.41-.26-.22-.1-1.27-.62-1.47-.7zm-2.45 6.04a7.13 7.13 0 0 1-3.63-1l-.27-.15-2.7.7.72-2.62-.17-.27a7.15 7.15 0 1 1 13.19-3.8c0 3.94-3.2 7.14-7.14 7.14zm6.08-13.21a8.6 8.6 0 0 0-13.52 10.36l-1.22 4.45 4.55-1.2a8.59 8.59 0 0 0 4.1 1.05h.01a8.6 8.6 0 0 0 6.08-14.66z"/><linearGradient id="owwbb" x1="28" x2="28" y1="2329.02" y2="2352.98" gradientUnits="userSpaceOnUse"><stop offset="0" stop-color="#61fd7d"/><stop offset="1" stop-color="#2bb826"/></linearGradient></defs><g><g transform="translate(-16 -2329)"><use fill="url(#owwbb)" xlink:href="#owwba"/></g><g transform="translate(-16 -2329)"><use fill="#fff" xlink:href="#owwbc"/></g></g></svg>